mtllib quaternius_cc0-snowy-rock-1310.mtl
o Cube019
usemtl Rock
v -0.18107455968856812 -0.12013952434062958 -0.1382291167974472
v -0.18107455968856812 -0.12013952434062958 -0.1382291167974472
v -0.18107455968856812 -0.12013952434062958 -0.1382291167974472
v -0.12127604335546494 0.7727838158607483 -0.12548506259918213
v -0.12127604335546494 0.7727838158607483 -0.12548506259918213
v -0.12127604335546494 0.7727838158607483 -0.12548506259918213
v -0.12127604335546494 0.7727838158607483 -0.12548506259918213
v 0.16147449612617493 0.5128281116485596 -0.1389613300561905
v 0.16147449612617493 0.5128281116485596 -0.1389613300561905
v 0.16147449612617493 0.5128281116485596 -0.1389613300561905
v 0.16147449612617493 0.5128281116485596 -0.1389613300561905
v 0.16147449612617493 0.5128281116485596 -0.1389613300561905
v -0.08538395166397095 -0.1181022971868515 0.21351444721221924
v -0.08538395166397095 -0.1181022971868515 0.21351444721221924
v -0.08538395166397095 -0.1181022971868515 0.21351444721221924
v -0.08752842992544174 0.7284307479858398 0.1444997936487198
v -0.08752842992544174 0.7284307479858398 0.1444997936487198
v -0.08752842992544174 0.7284307479858398 0.1444997936487198
v 0.17666944861412048 0.4893049895763397 0.059170741587877274
v 0.17666944861412048 0.4893049895763397 0.059170741587877274
v 0.10121502727270126 0.752843976020813 -0.10335788130760193
v 0.10121502727270126 0.752843976020813 -0.10335788130760193
v 0.10121502727270126 0.752843976020813 -0.10335788130760193
v 0.10121502727270126 0.752843976020813 -0.10335788130760193
v 0.1184542253613472 0.7079009413719177 0.1097838506102562
v 0.1184542253613472 0.7079009413719177 0.1097838506102562
v 0.1184542253613472 0.7079009413719177 0.1097838506102562
v -0.09889255464076996 0.7781989574432373 -0.10144411027431488
v -0.09889255464076996 0.7781989574432373 -0.10144411027431488
v -0.11728274077177048 0.5899274945259094 -0.16278673708438873
v -0.11728274077177048 0.5899274945259094 -0.16278673708438873
v -0.11728274077177048 0.5899274945259094 -0.16278673708438873
v -0.11728274077177048 0.5899274945259094 -0.16278673708438873
v -0.11728274077177048 0.5899274945259094 -0.16278673708438873
v 0.1408649981021881 -0.17120890319347382 0.24189387261867523
v 0.1408649981021881 -0.17120890319347382 0.24189387261867523
v 0.1408649981021881 -0.17120890319347382 0.24189387261867523
v 0.1408649981021881 -0.17120890319347382 0.24189387261867523
v 0.25507014989852905 -0.10422677546739578 0.20038627088069916
v 0.25507014989852905 -0.10422677546739578 0.20038627088069916
v 0.25507014989852905 -0.10422677546739578 0.20038627088069916
v 0.060062192380428314 0.509521484375 -0.15720920264720917
v 0.060062192380428314 0.509521484375 -0.15720920264720917
v 0.060062192380428314 0.509521484375 -0.15720920264720917
v 0.060062192380428314 0.509521484375 -0.15720920264720917
v 0.06799584627151489 -0.17183451354503632 -0.20260852575302124
v 0.06799584627151489 -0.17183451354503632 -0.20260852575302124
v 0.06799584627151489 -0.17183451354503632 -0.20260852575302124
v 0.06799584627151489 -0.17183451354503632 -0.20260852575302124
v -0.18483154475688934 -0.12017177790403366 -0.16114674508571625
v -0.18483154475688934 -0.12017177790403366 -0.16114674508571625
v -0.18483154475688934 -0.12017177790403366 -0.16114674508571625
v 0.2036466747522354 -0.10408361256122589 -0.2248542606830597
v 0.2036466747522354 -0.10408361256122589 -0.2248542606830597
v 0.2036466747522354 -0.10408361256122589 -0.2248542606830597
v 0.18968743085861206 0.19237186014652252 -0.18219181895256042
v 0.18968743085861206 0.19237186014652252 -0.18219181895256042
v 0.18968743085861206 0.19237186014652252 -0.18219181895256042
v 0.18968743085861206 0.19237186014652252 -0.18219181895256042
v 0.22179235517978668 0.1270039975643158 0.1667799949645996
v 0.22179235517978668 0.1270039975643158 0.1667799949645996
v 0.22179235517978668 0.1270039975643158 0.1667799949645996
v -0.09728820621967316 0.2816565930843353 0.21505281329154968
v -0.09728820621967316 0.2816565930843353 0.21505281329154968
v -0.09728820621967316 0.2816565930843353 0.21505281329154968
v -0.09728820621967316 0.2816565930843353 0.21505281329154968
v 0.11948065459728241 0.29047492146492004 0.20980270206928253
v 0.11948065459728241 0.29047492146492004 0.20980270206928253
v -0.17423193156719208 0.2877977192401886 -0.1309790164232254
v -0.17423193156719208 0.2877977192401886 -0.1309790164232254
v -0.17423193156719208 0.2877977192401886 -0.1309790164232254
v -0.17423193156719208 0.2877977192401886 -0.1309790164232254
v 0.18593044579029083 0.19233959913253784 -0.20510944724082947
v 0.18593044579029083 0.19233959913253784 -0.20510944724082947
v 0.18593044579029083 0.19233959913253784 -0.20510944724082947
v 0.18593044579029083 0.19233959913253784 -0.20510944724082947
v 0.0622258335351944 0.29392290115356445 -0.18057474493980408
v 0.0622258335351944 0.29392290115356445 -0.18057474493980408
v 0.0622258335351944 0.29392290115356445 -0.18057474493980408
v 0.0622258335351944 0.29392290115356445 -0.18057474493980408
v -0.1779889166355133 0.2877654731273651 -0.15389665961265564
v -0.1779889166355133 0.2877654731273651 -0.15389665961265564
v -0.1779889166355133 0.2877654731273651 -0.15389665961265564
v -0.1779889166355133 0.2877654731273651 -0.15389665961265564
v 0.22407744824886322 -0.1033608466386795 -0.2046710103750229
v 0.22407744824886322 -0.1033608466386795 -0.2046710103750229
v 0.22407744824886322 -0.1033608466386795 -0.2046710103750229
v 0.22407744824886322 -0.1033608466386795 -0.2046710103750229
v 0.2690907418727875 -0.10355903208255768 0.1814672350883484
v 0.2690907418727875 -0.10355903208255768 0.1814672350883484
v 0.2690907418727875 -0.10355903208255768 0.1814672350883484
v 0.2690907418727875 -0.10355903208255768 0.1814672350883484
v -0.082730732858181 -0.1180795207619667 0.22969910502433777
v -0.082730732858181 -0.1180795207619667 0.22969910502433777
v -0.082730732858181 -0.1180795207619667 0.22969910502433777
v 0.1428685486316681 0.48665064573287964 0.10684502124786377
v -0.09773871302604675 0.5049979090690613 0.1472608596086502
v -0.09773871302604675 0.5049979090690613 0.1472608596086502
v -0.09773871302604675 0.5049979090690613 0.1472608596086502
v 0.1136370450258255 0.4991421699523926 0.12727782130241394
v 0.1136370450258255 0.4991421699523926 0.12727782130241394
v 0.2023421823978424 0.4489516019821167 -0.12297744303941727
v 0.2023421823978424 0.4489516019821167 -0.12297744303941727
v 0.20858681201934814 0.43539583683013916 0.014852818101644516
v 0.22771181166172028 0.29528313875198364 0.04893862083554268
v 0.254710853099823 0.12415385991334915 0.13674700260162354
v 0.254710853099823 0.12415385991334915 0.13674700260162354
v 0.254710853099823 0.12415385991334915 0.13674700260162354
v 0.23469015955924988 0.19237184524536133 -0.14948657155036926
v 0.23469015955924988 0.19237184524536133 -0.14948657155036926
v 0.23469015955924988 0.19237184524536133 -0.14948657155036926
v 0.23469015955924988 0.19237184524536133 -0.14948657155036926
v 0.26908019185066223 0.002856261096894741 -0.17196576297283173
v 0.26908019185066223 0.002856261096894741 -0.17196576297283173
v 0.26908019185066223 0.002856261096894741 -0.17196576297283173
v 0.3004913032054901 0.001232990063726902 0.12857328355312347
v 0.3004913032054901 0.001232990063726902 0.12857328355312347
v 0.3004913032054901 0.001232990063726902 0.12857328355312347
vn -0.2115047771726558 -0.9762219919561147 0.04750107003406218
vn -0.9707086481329081 -0.008700077241823334 0.24010212222295824
vn -0.9867436786708295 0.013700606163794518 0.1617071612325918
vn 0.11610120125220387 0.9403097297747999 -0.31990330282546037
vn 0.11710028351958791 0.19790047409863662 -0.9732024074935117
vn -0.4264933098017665 0.8824861478442196 0.19829688741229531
vn -0.9956297401353255 0.007300218220364724 0.09310277854070387
vn 0.04529850342950457 0.16669451281830633 -0.9849675045316544
vn 0.16810025630273231 0.18580028807680182 -0.9681015219394778
vn 0.5730755254157353 0.15729328784197838 -0.8042656674068211
vn 0.9661178821030292 0.25590474028419685 -0.03360062173286674
vn 0.9810158894226191 0.10810174449019802 -0.16100260103030442
vn -0.2115047771726558 -0.9762219919561147 0.04750107003406218
vn -0.9707086481329081 -0.008700077241823334 0.24010212222295824
vn -0.9863842934114355 -0.029999521363048155 0.16169741627252804
vn 0.13240191476455124 0.04180060369992356 0.9903143150015566
vn -0.4264933098017665 0.8824861478442196 0.19829688741229531
vn -0.9956297401353255 0.007300218220364724 0.09310277854070387
vn 0.7371923302946197 0.07239924506865608 0.6717929870639295
vn 0.9661178821030292 0.25590474028419685 -0.03360062173286674
vn 0.11610120125220387 0.9403097297747999 -0.31990330282546037
vn 0.11710028351958791 0.19790047409863662 -0.9732024074935117
vn 0.16810025630273231 0.18580028807680182 -0.9681015219394778
vn 0.9661178821030292 0.25590474028419685 -0.03360062173286674
vn 0.13240191476455124 0.04180060369992356 0.9903143150015566
vn 0.7371923302946197 0.07239924506865608 0.6717929870639295
vn 0.9661178821030292 0.25590474028419685 -0.03360062173286674
vn 0.11610120125220387 0.9403097297747999 -0.31990330282546037
vn -0.4264933098017665 0.8824861478442196 0.19829688741229531
vn 0.11710028351958791 0.19790047409863662 -0.9732024074935117
vn -0.04459820608234941 0.03299867302934546 -0.9984598577772361
vn -0.9671279053480398 0.19900573505101893 0.15830455493736276
vn -0.9772888276449119 0.13589846224170665 0.16259814058215197
vn -0.9956297401353255 0.007300218220364724 0.09310277854070387
vn 0.40629578739032896 0.11799877336607946 0.9060905156952992
vn 0.4228157643710874 -0.9042336822292838 -0.059902231355464644
vn -0.010300041134316715 0.05370021589522685 0.9985039789432176
vn -0.2115047771726558 -0.9762219919561147 0.04750107003406218
vn 0.40629578739032896 0.11799877336607946 0.9060905156952992
vn 0.4228157643710874 -0.9042336822292838 -0.059902231355464644
vn 0.7841010318126793 0.19830026282829896 0.5881008227102893
vn 0.04529850342950457 0.16669451281830633 -0.9849675045316544
vn 0.11710028351958791 0.19790047409863662 -0.9732024074935117
vn 0.16810025630273231 0.18580028807680182 -0.9681015219394778
vn -0.04459820608234941 0.03299867302934546 -0.9984598577772361
vn 0.4228157643710874 -0.9042336822292838 -0.059902231355464644
vn -0.13380601333265774 0.03340149876398784 -0.990444491466503
vn -0.17110830656848852 0.048702363241957494 -0.9840477769081705
vn -0.2115047771726558 -0.9762219919561147 0.04750107003406218
vn -0.13380601333265774 0.03340149876398784 -0.990444491466503
vn -0.2115047771726558 -0.9762219919561147 0.04750107003406218
vn -0.9867436786708295 0.013700606163794518 0.1617071612325918
vn 0.4228157643710874 -0.9042336822292838 -0.059902231355464644
vn 0.8658521817546595 0.1110066926431135 -0.4878293897861562
vn -0.17110830656848852 0.048702363241957494 -0.9840477769081705
vn 0.4625061925134446 0.14660195615467983 -0.8744117384495348
vn 0.5730755254157353 0.15729328784197838 -0.8042656674068211
vn 0.8658521817546595 0.1110066926431135 -0.4878293897861562
vn 0.9810158894226191 0.10810174449019802 -0.16100260103030442
vn 0.40629578739032896 0.11799877336607946 0.9060905156952992
vn 0.6528895535984942 0.1854970317142842 0.7343882365800456
vn 0.7841010318126793 0.19830026282829896 0.5881008227102893
vn -0.010300041134316715 0.05370021589522685 0.9985039789432176
vn -0.9707086481329081 -0.008700077241823334 0.24010212222295824
vn -0.9772888276449119 0.13589846224170665 0.16259814058215197
vn -0.9863842934114355 -0.029999521363048155 0.16169741627252804
vn 0.40629578739032896 0.11799877336607946 0.9060905156952992
vn -0.010300041134316715 0.05370021589522685 0.9985039789432176
vn -0.9671279053480398 0.19900573505101893 0.15830455493736276
vn -0.9707086481329081 -0.008700077241823334 0.24010212222295824
vn -0.9772888276449119 0.13589846224170665 0.16259814058215197
vn -0.9867436786708295 0.013700606163794518 0.1617071612325918
vn 0.04529850342950457 0.16669451281830633 -0.9849675045316544
vn 0.8658521817546595 0.1110066926431135 -0.4878293897861562
vn 0.9810158894226191 0.10810174449019802 -0.16100260103030442
vn -0.17110830656848852 0.048702363241957494 -0.9840477769081705
vn 0.04529850342950457 0.16669451281830633 -0.9849675045316544
vn -0.04459820608234941 0.03299867302934546 -0.9984598577772361
vn -0.13380601333265774 0.03340149876398784 -0.990444491466503
vn -0.17110830656848852 0.048702363241957494 -0.9840477769081705
vn -0.04459820608234941 0.03299867302934546 -0.9984598577772361
vn -0.13380601333265774 0.03340149876398784 -0.990444491466503
vn -0.9671279053480398 0.19900573505101893 0.15830455493736276
vn -0.9867436786708295 0.013700606163794518 0.1617071612325918
vn 0.4228157643710874 -0.9042336822292838 -0.059902231355464644
vn 0.4625061925134446 0.14660195615467983 -0.8744117384495348
vn 0.8658521817546595 0.1110066926431135 -0.4878293897861562
vn 0.9318694630511326 -0.34738863104238593 -0.10459657190984188
vn 0.4228157643710874 -0.9042336822292838 -0.059902231355464644
vn 0.6528895535984942 0.1854970317142842 0.7343882365800456
vn 0.7841010318126793 0.19830026282829896 0.5881008227102893
vn 0.9318694630511326 -0.34738863104238593 -0.10459657190984188
vn -0.010300041134316715 0.05370021589522685 0.9985039789432176
vn -0.2115047771726558 -0.9762219919561147 0.04750107003406218
vn -0.9863842934114355 -0.029999521363048155 0.16169741627252804
vn 0.7371923302946197 0.07239924506865608 0.6717929870639295
vn 0.13240191476455124 0.04180060369992356 0.9903143150015566
vn -0.9772888276449119 0.13589846224170665 0.16259814058215197
vn -0.9956297401353255 0.007300218220364724 0.09310277854070387
vn 0.13240191476455124 0.04180060369992356 0.9903143150015566
vn 0.7371923302946197 0.07239924506865608 0.6717929870639295
vn 0.5730755254157353 0.15729328784197838 -0.8042656674068211
vn 0.9907163134094598 0.13170215950848918 -0.03370055674866239
vn 0.9907163134094598 0.13170215950848918 -0.03370055674866239
vn 0.9907163134094598 0.13170215950848918 -0.03370055674866239
vn 0.6528895535984942 0.1854970317142842 0.7343882365800456
vn 0.9658790864737089 0.2531945275559807 -0.05449882134888002
vn 0.9907163134094598 0.13170215950848918 -0.03370055674866239
vn 0.4625061925134446 0.14660195615467983 -0.8744117384495348
vn 0.5730755254157353 0.15729328784197838 -0.8042656674068211
vn 0.9658790864737089 0.2531945275559807 -0.05449882134888002
vn 0.9907163134094598 0.13170215950848918 -0.03370055674866239
vn 0.4625061925134446 0.14660195615467983 -0.8744117384495348
vn 0.9318694630511326 -0.34738863104238593 -0.10459657190984188
vn 0.9658790864737089 0.2531945275559807 -0.05449882134888002
vn 0.6528895535984942 0.1854970317142842 0.7343882365800456
vn 0.9318694630511326 -0.34738863104238593 -0.10459657190984188
vn 0.9658790864737089 0.2531945275559807 -0.05449882134888002
f 44//44 23//23 9//9
f 92//92 88//88 114//114
f 92//92 114//114 117//117
f 61//61 90//90 116//116
f 61//61 116//116 106//106
f 100//100 25//25 16//16
f 100//100 16//16 97//97
f 20//20 11//11 24//24
f 20//20 24//24 27//27
f 65//65 98//98 33//33
f 65//65 33//33 71//71
f 30//30 5//5 22//22
f 30//30 22//22 43//43
f 21//21 4//4 28//28
f 6//6 17//17 29//29
f 42//42 8//8 73//73
f 42//42 73//73 77//77
f 68//68 63//63 93//93
f 68//68 93//93 37//37
f 13//13 1//1 51//51
f 51//51 49//49 38//38
f 38//38 94//94 13//13
f 51//51 38//38 13//13
f 34//34 99//99 18//18
f 34//34 18//18 7//7
f 69//69 32//32 83//83
f 3//3 72//72 84//84
f 3//3 84//84 52//52
f 48//48 80//80 76//76
f 48//48 76//76 55//55
f 50//50 82//82 79//79
f 50//50 79//79 47//47
f 12//12 59//59 75//75
f 41//41 91//91 62//62
f 14//14 64//64 70//70
f 14//14 70//70 2//2
f 54//54 74//74 58//58
f 54//54 58//58 87//87
f 96//96 19//19 26//26
f 96//96 26//26 101//101
f 66//66 15//15 95//95
f 46//46 53//53 85//85
f 85//85 89//89 40//40
f 40//40 36//36 46//46
f 85//85 40//40 46//46
f 60//60 67//67 35//35
f 60//60 35//35 39//39
f 81//81 31//31 45//45
f 81//81 45//45 78//78
f 111//111 107//107 118//118
f 111//111 118//118 115//115
f 108//108 112//112 103//103
f 103//103 104//104 105//105
f 103//103 105//105 108//108
f 86//86 56//56 109//109
f 86//86 109//109 113//113
f 57//57 10//10 102//102
f 57//57 102//102 110//110
o Cube019_1
usemtl Snow
v 0.16147449612617493 0.5128281116485596 -0.1389613300561905
v 0.16147449612617493 0.5128281116485596 -0.1389613300561905
v -0.08752842992544174 0.7284307479858398 0.1444997936487198
v -0.08752842992544174 0.7284307479858398 0.1444997936487198
v 0.17666944861412048 0.4893049895763397 0.059170741587877274
v 0.17666944861412048 0.4893049895763397 0.059170741587877274
v 0.10121502727270126 0.752843976020813 -0.10335788130760193
v 0.10121502727270126 0.752843976020813 -0.10335788130760193
v 0.1184542253613472 0.7079009413719177 0.1097838506102562
v 0.1184542253613472 0.7079009413719177 0.1097838506102562
v -0.09889255464076996 0.7781989574432373 -0.10144411027431488
v -0.09889255464076996 0.7781989574432373 -0.10144411027431488
v 0.22179235517978668 0.1270039975643158 0.1667799949645996
v 0.22179235517978668 0.1270039975643158 0.1667799949645996
v -0.09728820621967316 0.2816565930843353 0.21505281329154968
v -0.09728820621967316 0.2816565930843353 0.21505281329154968
v 0.11948065459728241 0.29047492146492004 0.20980270206928253
v 0.11948065459728241 0.29047492146492004 0.20980270206928253
v 0.1428685486316681 0.48665064573287964 0.10684502124786377
v 0.1428685486316681 0.48665064573287964 0.10684502124786377
v -0.09773871302604675 0.5049979090690613 0.1472608596086502
v -0.09773871302604675 0.5049979090690613 0.1472608596086502
v 0.1136370450258255 0.4991421699523926 0.12727782130241394
v 0.1136370450258255 0.4991421699523926 0.12727782130241394
v 0.2023421823978424 0.4489516019821167 -0.12297744303941727
v 0.2023421823978424 0.4489516019821167 -0.12297744303941727
v 0.20858681201934814 0.43539583683013916 0.014852818101644516
v 0.20858681201934814 0.43539583683013916 0.014852818101644516
v 0.22771181166172028 0.29528313875198364 0.04893862083554268
v 0.22771181166172028 0.29528313875198364 0.04893862083554268
v 0.254710853099823 0.12415385991334915 0.13674700260162354
v 0.254710853099823 0.12415385991334915 0.13674700260162354
v 0.18137334287166595 0.5072178840637207 -0.13256774842739105
v 0.18137334287166595 0.5072178840637207 -0.13256774842739105
v 0.18137334287166595 0.5072178840637207 -0.13256774842739105
v 0.1965682953596115 0.48369479179382324 0.06556432694196701
v 0.1965682953596115 0.48369479179382324 0.06556432694196701
v 0.1965682953596115 0.48369479179382324 0.06556432694196701
v 0.1965682953596115 0.48369479179382324 0.06556432694196701
v 0.10941377282142639 0.7475898265838623 0.10236229747533798
v 0.10941377282142639 0.7475898265838623 0.10236229747533798
v 0.10941377282142639 0.7475898265838623 0.10236229747533798
v -0.07943333685398102 0.7664117813110352 0.13419024646282196
v -0.07943333685398102 0.7664117813110352 0.13419024646282196
v -0.07943333685398102 0.7664117813110352 0.13419024646282196
v -0.08985209465026855 0.8120397925376892 -0.09129376709461212
v -0.08985209465026855 0.8120397925376892 -0.09129376709461212
v -0.08985209465026855 0.8120397925376892 -0.09129376709461212
v 0.16276739537715912 0.48104041814804077 0.11323860287666321
v 0.16276739537715912 0.48104041814804077 0.11323860287666321
v 0.16276739537715912 0.48104041814804077 0.11323860287666321
v 0.16276739537715912 0.48104041814804077 0.11323860287666321
v 0.16276739537715912 0.48104041814804077 0.11323860287666321
v 0.22179235517978668 0.16376885771751404 0.1667799949645996
v 0.22179235517978668 0.16376885771751404 0.1667799949645996
v 0.22179235517978668 0.16376885771751404 0.1667799949645996
v 0.22179235517978668 0.16376885771751404 0.1667799949645996
v -0.07783986628055573 0.4993876814842224 0.15365444123744965
v -0.07783986628055573 0.4993876814842224 0.15365444123744965
v -0.07783986628055573 0.4993876814842224 0.15365444123744965
v -0.09728820621967316 0.31842145323753357 0.21505281329154968
v -0.09728820621967316 0.31842145323753357 0.21505281329154968
v -0.09728820621967316 0.31842145323753357 0.21505281329154968
v 0.13353589177131653 0.4935319423675537 0.13367140293121338
v 0.13353589177131653 0.4935319423675537 0.13367140293121338
v 0.13353589177131653 0.4935319423675537 0.13367140293121338
v 0.13353589177131653 0.4935319423675537 0.13367140293121338
v 0.11948065459728241 0.3272397816181183 0.20980270206928253
v 0.11948065459728241 0.3272397816181183 0.20980270206928253
v 0.11948065459728241 0.3272397816181183 0.20980270206928253
v 0.11948065459728241 0.3272397816181183 0.20980270206928253
v 0.09360869228839874 0.7887941002845764 -0.0930483341217041
v 0.09360869228839874 0.7887941002845764 -0.0930483341217041
v 0.09360869228839874 0.7887941002845764 -0.0930483341217041
v 0.2023421823978424 0.48571646213531494 -0.12297744303941727
v 0.2023421823978424 0.48571646213531494 -0.12297744303941727
v 0.2023421823978424 0.48571646213531494 -0.12297744303941727
v 0.20858681201934814 0.4721606969833374 0.014852818101644516
v 0.20858681201934814 0.4721606969833374 0.014852818101644516
v 0.20858681201934814 0.4721606969833374 0.014852818101644516
v 0.20858681201934814 0.4721606969833374 0.014852818101644516
v 0.22771181166172028 0.3320479989051819 0.04893862083554268
v 0.22771181166172028 0.3320479989051819 0.04893862083554268
v 0.22771181166172028 0.3320479989051819 0.04893862083554268
v 0.22771181166172028 0.3320479989051819 0.04893862083554268
v 0.254710853099823 0.1609187126159668 0.13674700260162354
v 0.254710853099823 0.1609187126159668 0.13674700260162354
v 0.254710853099823 0.1609187126159668 0.13674700260162354
vn 0.24138967054592395 0.9656586391703411 0.09609588726587132
vn 0.34708932952704513 -0.02939909773706985 -0.9373711593497597
vn 0.1834962062736171 0.22089542361219058 0.9578801355651871
vn -0.9685630920656808 0.231291193378355 0.09159650950655235
vn 0.20600407704448928 0.9580189897490016 0.19940395061620625
vn 0.24138967054592395 0.9656586391703411 0.09609588726587132
vn 0.026400820609354336 0.28070872305331873 -0.9594298356174504
vn 0.9758208799279523 0.2160046356400913 -0.03340071374429401
vn 0.1834962062736171 0.22089542361219058 0.9578801355651871
vn 0.9758208799279523 0.2160046356400913 -0.03340071374429401
vn 0.026400820609354336 0.28070872305331873 -0.9594298356174504
vn -0.9685630920656808 0.231291193378355 0.09159650950655235
vn 0.38760987737571195 0 0.9218235096594063
vn 0.6740156386358472 0 0.7387170763386419
vn 0.02420017238226882 0 0.9997071329427776
vn -0.6404915721251868 0.2608965502182418 0.7222904790462262
vn 0.02420017238226882 0 0.9997071329427776
vn 0.38760987737571195 0 0.9218235096594063
vn 0.20600407704448928 0.9580189897490016 0.19940395061620625
vn 0.30859344495089663 0.9416799926938205 -0.13419715754629158
vn 0.07280223415939396 0.8509260818530217 0.5202159531614401
vn -0.6404915721251868 0.2608965502182418 0.7222904790462262
vn 0.07280223415939396 0.8509260818530217 0.5202159531614401
vn 0.30859344495089663 0.9416799926938205 -0.13419715754629158
vn 0.34708932952704513 -0.02939909773706985 -0.9373711593497597
vn 0.9989734825551889 0 -0.04529879856638005
vn 0.8721118130566227 0 -0.4893066375260919
vn 0.9989734825551889 0 -0.04529879856638005
vn 0.8721118130566227 0 -0.4893066375260919
vn 0.9558330420730119 0 -0.29391018301762134
vn 0.6740156386358472 0 0.7387170763386419
vn 0.9558330420730119 0 -0.29391018301762134
vn 0.24138967054592395 0.9656586391703411 0.09609588726587132
vn 0.34708932952704513 -0.02939909773706985 -0.9373711593497597
vn 0.7254926819609664 0.6875930672364013 0.029599701172843104
vn 0.20600407704448928 0.9580189897490016 0.19940395061620625
vn 0.24138967054592395 0.9656586391703411 0.09609588726587132
vn 0.7254926819609664 0.6875930672364013 0.029599701172843104
vn 0.9023135804790315 0.14060211032505962 0.4075061337639593
vn 0.12730562254631306 0.9729430345126497 0.19280853212815194
vn 0.1834962062736171 0.22089542361219058 0.9578801355651871
vn 0.9758208799279523 0.2160046356400913 -0.03340071374429401
vn 0.12730562254631306 0.9729430345126497 0.19280853212815194
vn 0.1834962062736171 0.22089542361219058 0.9578801355651871
vn -0.9685630920656808 0.231291193378355 0.09159650950655235
vn 0.026400820609354336 0.28070872305331873 -0.9594298356174504
vn 0.12730562254631306 0.9729430345126497 0.19280853212815194
vn -0.9685630920656808 0.231291193378355 0.09159650950655235
vn 0.20600407704448928 0.9580189897490016 0.19940395061620625
vn 0.30859344495089663 0.9416799926938205 -0.13419715754629158
vn 0.6708349747673067 0.24961301559959787 0.698336436878545
vn 0.8543159773293448 0.2776051892180006 0.43940820406433495
vn 0.9023135804790315 0.14060211032505962 0.4075061337639593
vn 0.38760987737571195 0 0.9218235096594063
vn 0.6708349747673067 0.24961301559959787 0.698336436878545
vn 0.6740156386358472 0 0.7387170763386419
vn 0.8543159773293448 0.2776051892180006 0.43940820406433495
vn 0.0523001494165316 0.3633010545056598 0.9302026866044216
vn 0.07280223415939396 0.8509260818530217 0.5202159531614401
vn -0.6404915721251868 0.2608965502182418 0.7222904790462262
vn 0.02420017238226882 0 0.9997071329427776
vn 0.0523001494165316 0.3633010545056598 0.9302026866044216
vn -0.6404915721251868 0.2608965502182418 0.7222904790462262
vn 0.0523001494165316 0.3633010545056598 0.9302026866044216
vn 0.07280223415939396 0.8509260818530217 0.5202159531614401
vn 0.30859344495089663 0.9416799926938205 -0.13419715754629158
vn 0.6708349747673067 0.24961301559959787 0.698336436878545
vn 0.02420017238226882 0 0.9997071329427776
vn 0.0523001494165316 0.3633010545056598 0.9302026866044216
vn 0.38760987737571195 0 0.9218235096594063
vn 0.6708349747673067 0.24961301559959787 0.698336436878545
vn 0.026400820609354336 0.28070872305331873 -0.9594298356174504
vn 0.12730562254631306 0.9729430345126497 0.19280853212815194
vn 0.9758208799279523 0.2160046356400913 -0.03340071374429401
vn 0.34708932952704513 -0.02939909773706985 -0.9373711593497597
vn 0.7254926819609664 0.6875930672364013 0.029599701172843104
vn 0.9989734825551889 0 -0.04529879856638005
vn 0.7254926819609664 0.6875930672364013 0.029599701172843104
vn 0.8721118130566227 0 -0.4893066375260919
vn 0.9023135804790315 0.14060211032505962 0.4075061337639593
vn 0.9989734825551889 0 -0.04529879856638005
vn 0.8543159773293448 0.2776051892180006 0.43940820406433495
vn 0.8721118130566227 0 -0.4893066375260919
vn 0.9023135804790315 0.14060211032505962 0.4075061337639593
vn 0.9558330420730119 0 -0.29391018301762134
vn 0.6740156386358472 0 0.7387170763386419
vn 0.8543159773293448 0.2776051892180006 0.43940820406433495
vn 0.9558330420730119 0 -0.29391018301762134
f 119//119 124//124 155//155
f 119//119 155//155 151//151
f 141//141 139//139 177//177
f 141//141 177//177 183//183
f 136//136 131//131 172//172
f 136//136 172//172 188//188
f 138//138 142//142 184//184
f 138//138 184//184 168//168
f 133//133 135//135 186//186
f 133//133 186//186 179//179
f 150//150 148//148 203//203
f 150//150 203//203 206//206
f 173//173 169//169 185//185
f 173//173 185//185 189//189
f 187//187 182//182 176//176
f 187//187 176//176 180//180
f 158//158 191//191 165//165
f 158//158 165//165 161//161
f 157//157 171//171 202//202
f 157//157 202//202 198//198
f 170//170 175//175 205//205
f 170//170 205//205 200//200
f 153//153 156//156 196//196
f 153//153 196//196 194//194
f 130//130 122//122 163//163
f 130//130 163//163 166//166
f 125//125 129//129 164//164
f 125//125 164//164 190//190
f 143//143 120//120 152//152
f 143//143 152//152 193//193
f 128//128 126//126 192//192
f 128//128 192//192 160//160
f 147//147 145//145 197//197
f 147//147 197//197 201//201
f 140//140 134//134 181//181
f 140//140 181//181 178//178
f 121//121 127//127 159//159
f 121//121 159//159 162//162
f 123//123 137//137 167//167
f 123//123 167//167 154//154
f 146//146 144//144 195//195
f 146//146 195//195 199//199
f 132//132 149//149 204//204
f 132//132 204//204 174//174
